<?xml version="1.0" encoding="UTF-8"?><svg id="Calque_1" xmlns="http://www.w3.org/2000/svg" viewBox="0 0 283.46 283.46"><defs><style>.cls-1{fill:#f4d500;}.cls-2{fill:#1d1d1b;}</style></defs><rect class="cls-1" y="0" width="283.46" height="283.46"/><g><g><path class="cls-2" d="M94.2,142.62l2.52-3.14c1.29,1.06,3.02,1.62,4.48,1.62s2.07-.48,2.07-1.29c0-.87-.92-1.15-2.46-1.76l-2.27-.95c-1.96-.78-3.67-2.44-3.67-5.07,0-3.11,2.8-5.66,6.78-5.66,2.18,0,4.4,.78,6.05,2.3l-2.52,3.14c-1.23-.84-2.46-1.29-3.53-1.29-1.18,0-1.9,.42-1.9,1.23,0,.87,1.04,1.18,2.69,1.82l2.21,.87c2.27,.9,3.56,2.46,3.56,4.98,0,3.08-2.58,5.82-7.11,5.82-2.41,0-4.93-.78-6.89-2.63Z"/><path class="cls-2" d="M110.49,139.54v-4.87h-1.85v-3.58l2.13-.17,.56-4.2h3.98v4.2h3.19v3.75h-3.19v4.79c0,1.54,.78,2.04,1.68,2.04,.45,0,.9-.06,1.23-.17l.73,3.36c-.73,.28-1.85,.56-3.3,.56-3.64,0-5.15-2.3-5.15-5.71Z"/><path class="cls-2" d="M121.08,130.92h3.92l.34,2.41h.11c1.04-1.9,2.6-2.74,3.98-2.74,.87,0,1.34,.11,1.74,.28l-.9,4.09c-.5-.11-.84-.17-1.46-.17-1.01,0-2.24,.62-2.91,2.35v7.78h-4.82v-14Z"/><path class="cls-2" d="M131.38,140.94c0-2.91,2.24-4.54,7.62-5.1-.11-1.01-.73-1.46-1.96-1.46-1.01,0-2.07,.34-3.53,1.12l-1.68-3.08c1.96-1.18,3.98-1.85,6.16-1.85,3.64,0,5.82,1.96,5.82,6.55v7.78h-3.92l-.34-1.34h-.11c-1.12,1.01-2.35,1.68-3.86,1.68-2.63,0-4.2-2.02-4.2-4.31Zm7.62-.34v-1.9c-2.3,.34-3.02,1.06-3.02,1.85,0,.64,.45,1.01,1.29,1.01,.78,0,1.23-.39,1.74-.95Z"/><path class="cls-2" d="M145.83,143.12l2.02-2.69c1.29,1.01,2.58,1.29,3.53,1.29,1.01,0,1.4-.28,1.4-.84,0-.73-1.09-1.01-2.58-1.57-1.96-.73-3.58-2.07-3.58-4.2,0-2.74,2.24-4.54,5.54-4.54,2.13,0,3.92,.78,5.15,1.85l-2.02,2.69c-1.04-.76-2.07-1.01-2.97-1.01-.84,0-1.23,.28-1.23,.78,0,.62,.67,.9,2.46,1.46,2.13,.67,3.7,2.02,3.7,4.26,0,2.63-2.07,4.65-5.99,4.65-1.79,0-3.98-.73-5.43-2.13Z"/><path class="cls-2" d="M163.86,143.4h-.11l-.39,1.51h-3.75v-19.49h4.82v4.54l-.11,2.02c.98-.9,2.21-1.4,3.44-1.4,3.3,0,5.46,2.8,5.46,7.08,0,4.84-2.86,7.59-5.82,7.59-1.23,0-2.46-.62-3.53-1.85Zm4.42-5.66c0-2.3-.67-3.25-1.96-3.25-.73,0-1.29,.28-1.9,1.01v5.15c.56,.5,1.18,.67,1.79,.67,1.12,0,2.07-.9,2.07-3.58Z"/><path class="cls-2" d="M175.12,137.91c0-4.65,3.36-7.34,6.94-7.34s6.94,2.69,6.94,7.34-3.36,7.34-6.94,7.34-6.94-2.69-6.94-7.34Zm8.96,0c0-2.13-.56-3.47-2.02-3.47s-2.02,1.34-2.02,3.47,.56,3.47,2.02,3.47,2.02-1.34,2.02-3.47Z"/><path class="cls-2" d="M191.41,139.54v-8.62h4.82v8.01c0,1.79,.45,2.24,1.4,2.24,.9,0,1.4-.34,2.02-1.23v-9.02h4.82v14h-3.92l-.34-1.85h-.11c-1.12,1.34-2.41,2.18-4.31,2.18-3.08,0-4.37-2.24-4.37-5.71Z"/><path class="cls-2" d="M207.71,130.92h3.92l.34,2.41h.11c1.04-1.9,2.6-2.74,3.98-2.74,.87,0,1.34,.11,1.74,.28l-.9,4.09c-.5-.11-.84-.17-1.46-.17-1.01,0-2.24,.62-2.91,2.35v7.78h-4.82v-14Z"/><path class="cls-2" d="M218.35,147.21c0-1.15,.67-2.02,1.96-2.69v-.11c-.73-.5-1.29-1.23-1.29-2.41,0-.95,.62-1.96,1.57-2.63v-.11c-1.01-.67-1.9-1.96-1.9-3.58,0-3.47,2.91-5.1,5.99-5.1,.78,0,1.57,.11,2.24,.34h5.21v3.47h-2.02c.11,.34,.22,.9,.22,1.46,0,3.3-2.52,4.65-5.66,4.65-.45,0-.95-.06-1.57-.2-.28,.25-.34,.42-.34,.81,0,.62,.56,.84,1.96,.84h2.1c3.5,0,5.52,1.06,5.52,3.64,0,3.02-3.14,5.1-8.12,5.1-3.19,0-5.88-.95-5.88-3.47Zm9.41-.78c0-.73-.67-.84-1.88-.84h-1.09c-1.12,0-1.62-.06-2.02-.17-.34,.34-.5,.62-.5,1.01,0,.9,1.12,1.29,2.74,1.29s2.74-.5,2.74-1.29Zm-1.57-10.75c0-1.29-.62-1.9-1.51-1.9s-1.51,.62-1.51,1.9,.62,1.96,1.51,1.96,1.51-.62,1.51-1.96Z"/><path class="cls-2" d="M95.32,151.72h5.38c5.54,0,9.35,2.58,9.35,9.02s-3.81,9.18-9.07,9.18h-5.66v-18.2Zm5.1,14.34c2.63,0,4.7-1.06,4.7-5.32s-2.07-5.15-4.7-5.15h-.28v10.47h.28Z"/><path class="cls-2" d="M112.17,162.91c0-4.54,3.3-7.34,6.72-7.34,4.14,0,6.1,3.02,6.1,6.78,0,.84-.11,1.68-.2,2.02h-7.98c.45,1.68,1.68,2.24,3.25,2.24,.95,0,1.9-.28,2.91-.84l1.51,2.86c-1.51,1.06-3.53,1.62-5.1,1.62-4.09,0-7.22-2.69-7.22-7.34Zm8.74-1.68c0-1.06-.45-2.02-1.9-2.02-1.06,0-1.96,.62-2.24,2.02h4.14Z"/><path class="cls-2" d="M126.06,155.91h4.82l1.51,6.1c.34,1.4,.67,2.86,1.01,4.37h.11c.34-1.51,.67-2.97,1.01-4.37l1.51-6.1h4.59l-4.42,14h-5.54l-4.59-14Z"/><path class="cls-2" d="M141.57,162.91c0-4.54,3.3-7.34,6.72-7.34,4.14,0,6.1,3.02,6.1,6.78,0,.84-.11,1.68-.2,2.02h-7.98c.45,1.68,1.68,2.24,3.25,2.24,.95,0,1.9-.28,2.91-.84l1.51,2.86c-1.51,1.06-3.53,1.62-5.1,1.62-4.09,0-7.22-2.69-7.22-7.34Zm8.74-1.68c0-1.06-.45-2.02-1.9-2.02-1.06,0-1.96,.62-2.24,2.02h4.14Z"/><path class="cls-2" d="M157.03,164.99v-14.56h4.82v14.73c0,.95,.45,1.23,.78,1.23,.17,0,.28,0,.5-.06l.56,3.53c-.5,.22-1.29,.39-2.35,.39-3.25,0-4.31-2.13-4.31-5.26Z"/><path class="cls-2" d="M164.64,162.91c0-4.65,3.36-7.34,6.94-7.34s6.94,2.69,6.94,7.34-3.36,7.34-6.94,7.34-6.94-2.69-6.94-7.34Zm8.96,0c0-2.13-.56-3.47-2.02-3.47s-2.02,1.34-2.02,3.47,.56,3.47,2.02,3.47,2.02-1.34,2.02-3.47Z"/><path class="cls-2" d="M181.05,155.91h3.92l.34,1.29h.11c1.04-.95,2.41-1.62,3.81-1.62,3.3,0,5.43,2.8,5.43,7.11,0,4.82-2.86,7.56-5.82,7.56-1.18,0-2.24-.5-3.14-1.4l.17,2.13v3.86h-4.82v-18.93Zm8.68,6.83c0-2.3-.67-3.25-1.96-3.25-.73,0-1.29,.28-1.9,1.01v5.15c.56,.5,1.18,.67,1.79,.67,1.12,0,2.07-.9,2.07-3.58Z"/><path class="cls-2" d="M196.56,162.91c0-4.54,3.3-7.34,6.72-7.34,4.14,0,6.1,3.02,6.1,6.78,0,.84-.11,1.68-.2,2.02h-7.98c.45,1.68,1.68,2.24,3.25,2.24,.95,0,1.9-.28,2.91-.84l1.51,2.86c-1.51,1.06-3.53,1.62-5.1,1.62-4.09,0-7.22-2.69-7.22-7.34Zm8.74-1.68c0-1.06-.45-2.02-1.9-2.02-1.06,0-1.96,.62-2.24,2.02h4.14Z"/><path class="cls-2" d="M212.02,155.91h3.92l.34,2.41h.11c1.04-1.9,2.6-2.74,3.98-2.74,.87,0,1.34,.11,1.74,.28l-.9,4.09c-.5-.11-.84-.17-1.46-.17-1.01,0-2.24,.62-2.91,2.35v7.78h-4.82v-14Z"/><path class="cls-2" d="M95.32,176.72h5.15l2.74,7.45c.34,1.01,.62,2.13,.95,3.19h.11c.34-1.06,.62-2.18,.95-3.19l2.63-7.45h5.15v18.2h-4.37v-5.38c0-1.85,.39-5.21,.62-7.06h-.11l-1.51,4.93-2.24,6.02h-2.58l-2.24-6.02-1.46-4.93h-.11c.22,1.85,.62,5.21,.62,7.06v5.38h-4.31v-18.2Z"/><path class="cls-2" d="M115.92,187.91c0-4.54,3.3-7.34,6.72-7.34,4.14,0,6.1,3.02,6.1,6.78,0,.84-.11,1.68-.2,2.02h-7.98c.45,1.68,1.68,2.24,3.25,2.24,.95,0,1.9-.28,2.91-.84l1.51,2.86c-1.51,1.06-3.53,1.62-5.1,1.62-4.09,0-7.22-2.69-7.22-7.34Zm8.74-1.68c0-1.06-.45-2.02-1.9-2.02-1.06,0-1.96,.62-2.24,2.02h4.14Z"/><path class="cls-2" d="M130.65,187.91c0-4.54,3.3-7.34,6.72-7.34,4.14,0,6.1,3.02,6.1,6.78,0,.84-.11,1.68-.2,2.02h-7.98c.45,1.68,1.68,2.24,3.25,2.24,.95,0,1.9-.28,2.91-.84l1.51,2.86c-1.51,1.06-3.53,1.62-5.1,1.62-4.09,0-7.22-2.69-7.22-7.34Zm8.74-1.68c0-1.06-.45-2.02-1.9-2.02-1.06,0-1.96,.62-2.24,2.02h4.14Z"/><path class="cls-2" d="M146.44,189.54v-4.87h-1.85v-3.58l2.13-.17,.56-4.2h3.98v4.2h3.19v3.75h-3.19v4.79c0,1.54,.78,2.04,1.68,2.04,.45,0,.9-.06,1.23-.17l.73,3.36c-.73,.28-1.85,.56-3.3,.56-3.64,0-5.15-2.3-5.15-5.71Z"/><path class="cls-2" d="M156.91,189.54v-8.62h4.82v8.01c0,1.79,.45,2.24,1.4,2.24,.9,0,1.4-.34,2.02-1.23v-9.02h4.82v14h-3.92l-.34-1.85h-.11c-1.12,1.34-2.41,2.18-4.31,2.18-3.08,0-4.37-2.24-4.37-5.71Z"/><path class="cls-2" d="M173.21,180.91h3.92l.34,1.29h.11c1.04-.95,2.41-1.62,3.81-1.62,3.3,0,5.43,2.8,5.43,7.11,0,4.82-2.86,7.56-5.82,7.56-1.18,0-2.24-.5-3.14-1.4l.17,2.13v3.86h-4.82v-18.93Zm8.68,6.83c0-2.3-.67-3.25-1.96-3.25-.73,0-1.29,.28-1.9,1.01v5.15c.56,.5,1.18,.67,1.79,.67,1.12,0,2.07-.9,2.07-3.58Z"/></g><g><path class="cls-2" d="M59.29,166.06l.91,1.72-1.27,.67-2.61-4.96,1.27-.67,.91,1.72,5.07-2.67,.79,1.51-5.07,2.67Z"/><path class="cls-2" d="M54.83,159.81l-.69-1.92,5.98-4.52,.61,1.7-1.41,.95,.72,2,1.69-.17,.59,1.65-7.49,.32Zm3.85-1.67l-.5-1.38-.53,.35c-.6,.41-1.33,.88-1.97,1.31v.04c.78-.09,1.64-.2,2.36-.26l.63-.06Z"/><path class="cls-2" d="M52.68,153.03l-.5-2.58c-.29-1.49,0-2.84,1.69-3.17,1.03-.2,1.78,.16,2.26,.82l2.49-2.1,.36,1.88-2.22,1.77,.16,.82,2.47-.47,.32,1.68-7.03,1.35Zm2.76-3.07c-.15-.8-.58-1.17-1.25-1.04s-.8,.6-.65,1.4l.15,.77,1.9-.37-.15-.77Z"/><path class="cls-2" d="M52.7,143.07l.08,1.94-1.43,.06-.24-5.59,1.43-.06,.08,1.94,5.72-.25,.07,1.7-5.72,.25Z"/><path class="cls-2" d="M51.25,136.38l.45-4.51,1.42,.14-.28,2.8,1.33,.13,.24-2.4,1.42,.14-.24,2.4,1.52,.15,.29-2.91,1.42,.14-.46,4.62-7.12-.72Z"/><path class="cls-2" d="M58.27,130.32l-.86-1.14c.55-.38,.95-1,1.1-1.58,.16-.63,0-.98-.38-1.07-.41-.1-.63,.24-1.03,.79l-.61,.79c-.47,.66-1.25,1.18-2.25,.93-1.16-.29-1.84-1.57-1.47-3.04,.21-.83,.72-1.58,1.43-2.03l.86,1.13c-.45,.39-.75,.82-.86,1.26-.13,.51,0,.89,.36,.98,.4,.1,.65-.3,1.05-.86l.57-.78c.56-.78,1.26-1.15,2.23-.9,1.16,.29,1.93,1.52,1.51,3.19-.23,.94-.79,1.79-1.66,2.34Z"/><path class="cls-2" d="M55.98,117.02l2.01-4.11,1.28,.63-1.26,2.57,1.4,.69,1.07-2.19,1.28,.63-1.07,2.19,2.46,1.2-.75,1.54-6.43-3.15Z"/><path class="cls-2" d="M59.64,110.13l.96-1.42,4.75,3.21,1.56-2.3,1.18,.8-2.52,3.73-5.93-4.01Z"/><path class="cls-2" d="M65,102.93l1.37-1.52,6.81,3.15-1.21,1.34-1.5-.8-1.43,1.58,.94,1.42-1.17,1.3-3.82-6.47Zm3.29,2.62l.98-1.09-.56-.3c-.65-.33-1.4-.76-2.08-1.13l-.03,.03c.44,.63,.94,1.34,1.34,1.95l.35,.53Z"/><path class="cls-2" d="M69.97,97.79l1.47-1.16,2.81,1.74c.36,.25,.72,.51,1.11,.78l.04-.03c-.18-.44-.35-.84-.5-1.26l-1.07-3.12,1.47-1.16,4.43,5.62-1.22,.96-1.54-1.95c-.44-.55-1.08-1.6-1.44-2.21l-.03,.03,.69,1.84,.87,2.67-.76,.6-2.38-1.48-1.61-1.11-.04,.03c.51,.5,1.37,1.37,1.81,1.92l1.54,1.95-1.21,.95-4.43-5.62Z"/><path class="cls-2" d="M78.54,91.55l2.2-1.18c1.31-.7,2.53-.91,3.19,.31,.3,.55,.32,1.33-.09,1.8l.02,.04c.73-.17,1.48,.03,1.93,.87,.69,1.29-.1,2.46-1.47,3.19l-2.38,1.28-3.4-6.31Zm3.49,1.36c.65-.35,.78-.78,.54-1.22-.25-.46-.64-.48-1.26-.14l-.64,.34,.73,1.36,.63-.34Zm1.55,2.58c.74-.4,.97-.87,.68-1.4s-.77-.54-1.51-.14l-.76,.41,.83,1.54,.76-.41Z"/><path class="cls-2" d="M86.36,87.69l4.27-1.53,.48,1.35-2.65,.95,.45,1.26,2.27-.81,.48,1.35-2.27,.81,.51,1.44,2.76-.99,.48,1.35-4.37,1.56-2.41-6.74Zm.64-1.43l1.73-2.29,1.04,.8-1.91,2.07-.85-.58Z"/><path class="cls-2" d="M94.05,85.22l4.45-.89,.28,1.4-2.76,.55,.26,1.32,2.36-.47,.28,1.4-2.36,.47,.3,1.5,2.87-.58,.28,1.4-4.55,.91-1.41-7.02Z"/><path class="cls-2" d="M101.88,90.15l.84-1.16c.53,.41,1.23,.62,1.84,.58,.65-.04,.93-.29,.91-.68-.02-.42-.41-.53-1.05-.75l-.93-.35c-.77-.26-1.5-.84-1.55-1.88-.07-1.2,.96-2.22,2.47-2.3,.86-.05,1.72,.23,2.37,.76l-.83,1.16c-.5-.31-1.01-.47-1.46-.45-.53,.03-.86,.26-.84,.63,.02,.42,.48,.54,1.13,.75l.91,.31c.91,.3,1.47,.87,1.52,1.87,.07,1.2-.88,2.3-2.6,2.39-.97,.05-1.94-.23-2.73-.9Z"/><path class="cls-2" d="M113.93,84.03l4.48,.7-.22,1.41-2.78-.44-.21,1.33,2.38,.37-.22,1.41-2.38-.37-.24,1.51,2.89,.45-.22,1.41-4.58-.72,1.11-7.07Z"/><path class="cls-2" d="M122.78,87.32l-1.86-.58,.42-1.36,5.34,1.66-.42,1.36-1.86-.58-1.7,5.47-1.63-.51,1.7-5.47Z"/><path class="cls-2" d="M133.08,89.86l2.17,1.24c1.29,.74,2.11,1.67,1.42,2.87-.31,.54-.96,.97-1.58,.87l-.02,.04c.53,.53,.76,1.27,.28,2.1-.73,1.27-2.14,1.21-3.48,.43l-2.35-1.35,3.57-6.21Zm-.68,6.35c.72,.42,1.25,.36,1.55-.16,.3-.52,.05-.93-.68-1.35l-.74-.43-.87,1.52,.74,.43Zm1.37-2.67c.64,.37,1.07,.25,1.32-.18,.26-.45,.06-.8-.54-1.15l-.63-.36-.77,1.33,.62,.36Z"/><path class="cls-2" d="M140.34,94.39l1.37,1.03-4.3,5.73-1.37-1.03,4.3-5.73Z"/><path class="cls-2" d="M144.46,97.65l3.28,3.12-.99,1.04-2.04-1.94-.93,.97,1.74,1.66-.99,1.04-1.74-1.66-1.05,1.11,2.12,2.02-.98,1.04-3.36-3.2,4.94-5.19Zm1.5-.79l1.27-.31,.65,2.79-1.01,.19-.91-2.67Z"/><path class="cls-2" d="M150.14,103.4l1.61,2.07c.93,1.2,1.3,2.53-.07,3.59-.82,.64-1.66,.66-2.39,.3l-1.26,3-1.17-1.51,1.18-2.59-.51-.66-1.99,1.54-1.05-1.35,5.65-4.39Zm-1.06,3.99c.5,.64,1.05,.77,1.58,.36,.54-.42,.44-.9-.06-1.54l-.48-.62-1.53,1.19,.48,.62Z"/><path class="cls-2" d="M155.32,110.56l2.21,3.95-1.25,.7-1.38-2.46-1.17,.66,1.18,2.1-1.25,.7-1.18-2.1-1.33,.75,1.43,2.55-1.25,.7-2.27-4.05,6.25-3.5Z"/></g></g></svg>